<?xml version="1.0" standalone="no"?>
<!DOCTYPE svg PUBLIC "-//W3C//DTD SVG 20010904//EN"
 "http://www.w3.org/TR/2001/REC-SVG-20010904/DTD/svg10.dtd">
<svg version="1.0" xmlns="http://www.w3.org/2000/svg"
 width="500.000000pt" height="500.000000pt" viewBox="0 0 500.000000 500.000000"
 preserveAspectRatio="xMidYMid meet">

<g transform="translate(0.000000,500.000000) scale(0.100000,-0.100000)"
fill="#000000" stroke="none">
<path d="M0 2500 l0 -2500 2500 0 2500 0 0 2500 0 2500 -2500 0 -2500 0 0
-2500z m1870 89 c0 -60 0 -61 25 -55 17 4 31 0 45 -14 17 -17 20 -33 20 -125
0 -128 -10 -145 -90 -145 l-50 0 0 193 c0 107 3 197 7 200 3 4 15 7 25 7 15 0
18 -9 18 -61z m170 -123 c0 -138 3 -185 13 -189 9 -3 8 -9 -4 -21 -8 -9 -23
-14 -31 -11 -14 6 -17 34 -20 198 -2 106 -2 195 0 200 2 4 12 7 23 7 18 0 19
-9 19 -184z m1170 5 c0 -109 4 -182 10 -186 16 -10 12 -32 -7 -39 -37 -14 -42
12 -43 204 0 102 -1 188 0 193 0 4 9 7 20 7 19 0 20 -7 20 -179z m-1605 142
c11 -11 15 -40 15 -113 0 -91 -2 -100 -22 -114 -12 -9 -35 -16 -50 -16 -28 0
-28 -1 -28 -60 0 -53 -2 -60 -20 -60 -19 0 -20 7 -20 163 0 108 -4 167 -11
174 -7 7 -9 18 -6 26 7 20 122 20 142 0z m839 4 c11 -8 20 -31 23 -59 5 -40 2
-48 -16 -57 -24 -14 -28 -8 -33 49 -2 28 -8 36 -25 38 -23 3 -23 3 -23 -146 0
-82 3 -152 6 -155 4 -3 15 -2 25 4 14 7 19 21 19 54 0 38 -3 45 -20 45 -13 0
-20 7 -20 20 0 17 7 20 40 20 24 0 42 -5 45 -12 2 -7 5 -48 8 -90 3 -61 1 -78
-11 -83 -8 -3 -20 -1 -27 5 -9 7 -20 7 -38 -1 -22 -10 -31 -9 -52 5 l-25 16 0
165 c0 158 1 164 22 179 27 19 78 21 102 3z m-677 -99 c9 -7 13 -44 13 -119 0
-61 4 -110 10 -114 30 -19 -7 -53 -38 -36 -11 6 -24 5 -35 -1 -32 -17 -67 15
-67 62 0 41 12 58 60 87 25 14 30 24 30 54 0 23 -5 39 -15 43 -17 6 -38 -26
-29 -47 7 -19 -9 -29 -31 -21 -12 5 -15 17 -13 48 2 32 8 43 28 53 26 14 65 9
87 -9z m431 0 c8 -7 12 -46 12 -128 0 -132 -6 -144 -67 -144 -53 0 -63 21 -63
137 0 54 5 107 11 118 19 36 72 44 107 17z m417 -3 c23 -22 25 -31 25 -123 0
-81 -3 -104 -17 -120 -27 -32 -65 -37 -94 -14 -22 18 -24 29 -27 114 -4 103 7
144 40 158 36 14 47 12 73 -15z m94 16 c9 -6 22 -6 34 0 13 8 25 6 43 -6 23
-15 24 -20 24 -129 0 -82 4 -116 13 -119 9 -3 8 -9 -4 -21 -9 -10 -22 -14 -32
-10 -14 5 -17 25 -19 122 -3 109 -4 117 -23 117 -19 0 -20 -7 -20 -118 0 -115
0 -117 -22 -117 -23 0 -23 2 -23 124 0 91 -3 125 -12 129 -10 3 -10 7 1 20 15
19 20 20 40 8z m388 -6 c26 -18 31 -45 36 -177 2 -78 0 -99 -12 -103 -8 -3
-19 -1 -24 4 -6 6 -19 6 -34 0 -32 -12 -61 4 -69 38 -10 39 7 75 49 102 35 23
38 28 35 65 -4 53 -31 57 -38 6 -5 -32 -10 -36 -40 -31 -12 1 -13 61 -2 77 10
15 44 33 62 34 9 0 25 -7 37 -15z m281 -12 c28 -38 6 -102 -45 -134 -30 -19
-34 -26 -31 -58 4 -48 32 -50 36 -3 3 28 7 33 25 30 12 -2 23 -11 25 -21 16
-82 -99 -119 -128 -41 -13 33 -13 175 0 209 17 45 88 56 118 18z m-408 -11 c0
-15 -15 -59 -34 -98 -54 -114 -54 -114 -7 -114 34 0 41 -3 41 -20 0 -18 -7
-20 -65 -20 -65 0 -65 0 -65 28 0 16 15 59 34 98 53 109 54 112 9 116 -27 2
-39 8 -41 21 -3 15 5 17 62 17 65 0 66 0 66 -28z m562 -12 c-1 -19 -18 -67
-37 -105 -19 -39 -35 -75 -35 -82 0 -6 17 -13 38 -15 25 -2 37 -8 37 -18 0
-11 -15 -16 -62 -18 l-63 -3 0 31 c0 17 14 59 31 93 18 34 35 74 40 90 7 26 6
27 -32 27 -33 0 -39 3 -39 20 0 19 5 21 63 18 l62 -3 -3 -35z"/>
<path d="M1877 2483 c-4 -3 -7 -48 -7 -100 0 -86 1 -93 20 -93 19 0 20 7 20
100 0 77 -3 100 -13 100 -8 0 -17 -3 -20 -7z"/>
<path d="M1527 2583 c-4 -3 -7 -44 -7 -90 0 -82 0 -83 25 -83 25 0 25 1 25 90
0 81 -2 90 -18 90 -10 0 -22 -3 -25 -7z"/>
<path d="M1713 2353 c-27 -27 -30 -51 -7 -60 23 -9 36 10 32 48 l-3 34 -22
-22z"/>
<path d="M2135 2488 c-3 -8 -4 -57 -3 -109 2 -76 6 -94 18 -94 12 0 15 18 15
104 0 75 -4 106 -12 108 -7 3 -15 -2 -18 -9z"/>
<path d="M2555 2488 c-3 -8 -4 -57 -3 -109 2 -76 6 -94 18 -94 12 0 15 18 15
104 0 75 -4 106 -12 108 -7 3 -15 -2 -18 -9z"/>
<path d="M3058 2353 c-22 -24 -24 -63 -3 -63 19 0 28 20 23 55 -3 27 -3 27
-20 8z"/>
<path d="M3307 2494 c-10 -11 -9 -84 2 -84 17 0 32 29 29 56 -3 27 -18 41 -31
28z"/>
</g>
</svg>
